<svg id="Layer_2" data-name="Layer 2" xmlns="http://www.w3.org/2000/svg" viewBox="0 0 352.7 352.49">
  <defs>
    <style>
      .cls-1, .cls-2, .cls-3 {
        fill: none;
        stroke: #000;
        stroke-miterlimit: 10;
      }

      .cls-1 {
        stroke-linecap: round;
      }

      .cls-1, .cls-2 {
        stroke-width: 8px;
      }

      .cls-3 {
        stroke-width: 5px;
      }
    </style>
  </defs>
  <title>logo</title>
  <path class="cls-1" d="M300.19,307.09l-43.88-34.37c-1.88-1.51-6,.48-6,2.9l.63,70.91c0,2.24,2.27,6,6.12,3.36l17-12.66" transform="translate(-149.35 -46.48)"/>
  <path class="cls-1" d="M276.8,315.87l43.87,34.36c1.88,1.52,6-.48,6-2.9L326,276.42c0-2.24-2.27-6-6.12-3.35l-17,12.66" transform="translate(-149.35 -46.48)"/>
  <path class="cls-1" d="M344.5,294.91l.24-20.64a2.86,2.86,0,0,1,2.92-2.84l39.53.94A13.62,13.62,0,0,1,400.48,286V337.2a13.61,13.61,0,0,1-13.61,13.61H347.36a2.86,2.86,0,0,1-2.86-2.9l.24-20.58" transform="translate(-149.35 -46.48)"/>
  <path class="cls-1" d="M223.26,307.94" transform="translate(-149.35 -46.48)"/>
  <path class="cls-2" d="M224.66,389a6,6,0,0,1-6.52,5.91C172,391.61,153.35,353.08,153.35,306s18.6-85.58,64.79-88.92a6,6,0,0,1,6.52,5.91Z" transform="translate(-149.35 -46.48)"/>
  <line class="cls-3" x1="87.2" y1="170.41" x2="87.2" y2="348.7"/>
  <path class="cls-2" d="M189,225.55l-4.84-35a122.82,122.82,0,0,1,24.31-91.69h0a122.82,122.82,0,0,1,73.24-45.54l2.35-.47a123.2,123.2,0,0,1,24.08-2.38H325.7" transform="translate(-149.35 -46.48)"/>
  <path class="cls-2" d="M426.73,389a6,6,0,0,0,6.53,5.91c46.18-3.34,64.79-41.87,64.79-88.91s-18.61-85.58-64.79-88.92a6,6,0,0,0-6.53,5.91Z" transform="translate(-149.35 -46.48)"/>
  <line class="cls-3" x1="265.5" y1="170.41" x2="265.5" y2="348.7"/>
  <path class="cls-2" d="M462.39,225.55l4.84-35a122.82,122.82,0,0,0-24.3-91.69h0a122.87,122.87,0,0,0-73.25-45.54l-2.34-.47a123.3,123.3,0,0,0-24.09-2.38H325.7" transform="translate(-149.35 -46.48)"/>
</svg>
