<svg id="Layer_2" data-name="Layer 2" xmlns="http://www.w3.org/2000/svg" viewBox="0 0 354.7 354.49">
  <defs>
    <style>
      .cls-1, .cls-2, .cls-3, .cls-4 {
        fill: none;
        stroke: #fff;
        stroke-miterlimit: 10;
      }

      .cls-1, .cls-3, .cls-4 {
        stroke-linecap: round;
      }

      .cls-1 {
        stroke-width: 8px;
      }

      .cls-2 {
        stroke-width: 10px;
      }

      .cls-3 {
        stroke-width: 5px;
      }

      .cls-4 {
        stroke-width: 7px;
      }
    </style>
  </defs>
  <title>logo</title>
  <path class="cls-1" d="M341,296.75l-57.37-44.94c-2.46-2-7.86.63-7.83,3.79l.84,92.73c0,2.92,3,7.89,8,4.39l22.29-16.56" transform="translate(-148.35 -45.48)"/>
  <path class="cls-1" d="M310.4,308.23l57.37,44.93c2.47,2,7.86-.62,7.83-3.79l-.83-92.72c0-2.93-3-7.89-8-4.39l-22.28,16.56" transform="translate(-148.35 -45.48)"/>
  <path class="cls-1" d="M223.26,307.94" transform="translate(-148.35 -45.48)"/>
  <path class="cls-2" d="M224.66,389a6,6,0,0,1-6.52,5.91C172,391.61,153.35,353.08,153.35,306s18.6-85.58,64.79-88.92a6,6,0,0,1,6.52,5.91Z" transform="translate(-148.35 -45.48)"/>
  <line class="cls-3" x1="88.2" y1="171.41" x2="88.2" y2="349.7"/>
  <path class="cls-2" d="M189,225.55l-4.84-35a122.82,122.82,0,0,1,24.31-91.69h0a122.82,122.82,0,0,1,73.24-45.54l2.35-.47a123.2,123.2,0,0,1,24.08-2.38H325.7" transform="translate(-148.35 -45.48)"/>
  <path class="cls-2" d="M426.73,389a6,6,0,0,0,6.53,5.91c46.18-3.34,64.79-41.87,64.79-88.91s-18.61-85.58-64.79-88.92a6,6,0,0,0-6.53,5.91Z" transform="translate(-148.35 -45.48)"/>
  <line class="cls-3" x1="266.5" y1="171.41" x2="266.5" y2="349.7"/>
  <path class="cls-2" d="M462.39,225.55l4.84-35a122.82,122.82,0,0,0-24.3-91.69h0a122.87,122.87,0,0,0-73.25-45.54l-2.34-.47a123.3,123.3,0,0,0-24.09-2.38H325.7" transform="translate(-148.35 -45.48)"/>
  <line class="cls-4" x1="110.93" y1="308.37" x2="110.93" y2="216.17"/>
  <line class="cls-4" x1="243.77" y1="308.37" x2="243.77" y2="216.17"/>
  <line class="cls-3" x1="99.57" y1="296.42" x2="99.57" y2="235.86"/>
  <line class="cls-3" x1="255.62" y1="290.84" x2="255.62" y2="230.27"/>
</svg>
