<?xml version="1.0" encoding="utf-8"?>
<!-- Generator: Adobe Illustrator 23.1.0, SVG Export Plug-In . SVG Version: 6.00 Build 0)  -->
<svg version="1.1" id="Layer_2" xmlns="http://www.w3.org/2000/svg" xmlns:xlink="http://www.w3.org/1999/xlink" x="0px" y="0px"
	 viewBox="0 0 640 480" style="enable-background:new 0 0 640 480;" xml:space="preserve">
<style type="text/css">
	.st0{fill:none;stroke:#FFFFFF;stroke-width:8;stroke-linecap:round;stroke-miterlimit:10;}
	.st1{fill:none;stroke:#FFFFFF;stroke-width:8;stroke-miterlimit:10;}
	.st2{fill:none;stroke:#FFFFFF;stroke-width:5;stroke-miterlimit:10;}
</style>
<path class="st0" d="M300.2,307.1l-43.9-34.4c-1.9-1.5-6,0.5-6,2.9l0.6,70.9c0,2.2,2.3,6,6.1,3.4l17-12.7"/>
<path class="st0" d="M276.8,315.9l43.9,34.4c1.9,1.5,6-0.5,6-2.9l-0.6-70.9c0-2.2-2.3-6-6.1-3.4l-17,12.7"/>
<path class="st0" d="M344.5,294.9l0.2-20.6c0-1.6,1.3-2.9,2.9-2.8l39.5,0.9c7.4,0.2,13.3,6.2,13.3,13.6l0,51.2
	c0,7.5-6.1,13.6-13.6,13.6h-39.5c-1.6,0-2.9-1.3-2.9-2.9l0.2-20.6"/>
<path class="st0" d="M223.3,307.9"/>
<path class="st1" d="M224.7,389c0,3.5-3,6.2-6.5,5.9c-46.2-3.3-64.8-41.9-64.8-88.9s18.6-85.6,64.8-88.9c3.5-0.3,6.5,2.4,6.5,5.9
	V389z"/>
<line class="st2" x1="236.5" y1="216.9" x2="236.5" y2="395.2"/>
<path class="st1" d="M189,225.6l-4.8-35c-4.5-32.6,4.2-65.6,24.3-91.7l0,0c18.1-23.5,44.1-39.7,73.2-45.5l2.3-0.5
	c7.9-1.6,16-2.4,24.1-2.4h17.6"/>
<path class="st1" d="M426.7,389c0,3.5,3,6.2,6.5,5.9c46.2-3.3,64.8-41.9,64.8-88.9s-18.6-85.6-64.8-88.9c-3.5-0.3-6.5,2.4-6.5,5.9
	V389z"/>
<line class="st2" x1="414.8" y1="216.9" x2="414.8" y2="395.2"/>
<path class="st1" d="M462.4,225.6l4.8-35c4.5-32.6-4.2-65.6-24.3-91.7l0,0c-18.1-23.5-44.1-39.7-73.2-45.5l-2.3-0.5
	c-7.9-1.6-16-2.4-24.1-2.4h-17.6"/>
</svg>
