<svg id="Layer_1" data-name="Layer 1" xmlns="http://www.w3.org/2000/svg" viewBox="0 0 219.6 120.81"><defs><style>.cls-1{fill:none;stroke:#fff;stroke-linecap:round;stroke-miterlimit:10;stroke-width:10px;}</style></defs><title>ndlogo</title><path class="cls-1" d="M285.08,234.2l-61.24-48c-2.63-2.12-8.39.67-8.36,4l.9,99c0,3.12,3.16,8.42,8.53,4.68l23.79-17.67" transform="translate(-210.48 -179.42)"/><path class="cls-1" d="M252.43,246.45l61.25,48c2.62,2.12,8.38-.67,8.35-4l-.89-99c0-3.12-3.16-8.42-8.53-4.68l-23.79,17.68" transform="translate(-210.48 -179.42)"/><path class="cls-1" d="M346.94,217.19l.34-28.81a4,4,0,0,1,4.07-4l55.19,1.31a19,19,0,0,1,18.54,19v71.5a19,19,0,0,1-19,19H350.94a4,4,0,0,1-4-4.05l.34-28.72" transform="translate(-210.48 -179.42)"/><path class="cls-1" d="M224.91,293.94" transform="translate(-210.48 -179.42)"/></svg>